<svg xmlns="http://www.w3.org/2000/svg" xmlns:xlink="http://www.w3.org/1999/xlink" width="1298.704" height="406.5" viewBox="0 0 1298.704 406.5"><defs><linearGradient id="a" x1="-0.195" y1="3.903" x2="-0.195" y2="3.897" gradientUnits="objectBoundingBox"><stop offset="0.04" stop-color="#29abe2"/><stop offset="0.46" stop-color="#67c5de"/><stop offset="0.81" stop-color="#95d8db"/></linearGradient></defs><g transform="translate(-254.475 -239.75)"><rect width="1298.704" height="335.5" transform="translate(254.475 239.75)" fill="#cce9d4"/><path d="M480.142,411.173l15.571,9.111-9.435-15.853a16.2,16.2,0,0,1,9.4-3.078h.246a18.885,18.885,0,0,0,3.186-.226l5.259,3.078-2.283-3.776a18.716,18.716,0,0,0,9.209-6.464l9.424,5.495-5.89-9.963c5.515-6.1,12.939-9.83,21.106-9.83,9.8,0,18.521,5.387,24.164,13.76a18.393,18.393,0,0,0,15.93,7.967h.513c10.81,0,19.572,11.343,19.572,25.339s-8.765,25.345-19.572,25.345a15.768,15.768,0,0,1-6.834-1.58,30.34,30.34,0,0,0-23.692-.436,26.5,26.5,0,0,1-20.167.031,30.341,30.341,0,0,0-23.492.421,15.676,15.676,0,0,1-6.746,1.539c-10.825,0-19.588-11.353-19.588-25.344A30.312,30.312,0,0,1,480.142,411.173Z" fill="#f2f2f2"/><path d="M848.34,434.347l11.107,5.336-6.731-9.291a13.34,13.34,0,0,1,6.705-1.811h.174a16,16,0,0,0,2.273-.133l3.75,1.816-1.626-2.232a13.621,13.621,0,0,0,6.567-3.786l6.721,3.237-4.171-5.828a22.512,22.512,0,0,1,31.791,1.7l.017.019c.174.185.339.38.513.575,2.416,2.991,6.752,4.771,11.364,4.669h.38c7.7,0,13.965,6.639,13.965,14.837s-6.274,14.842-13.99,14.842a13.29,13.29,0,0,1-4.871-.924,26.067,26.067,0,0,0-16.9-.256,22.732,22.732,0,0,1-14.4.031,26.012,26.012,0,0,0-16.761.246,13.176,13.176,0,0,1-4.807.9c-7.7,0-13.975-6.669-13.975-14.837A15.349,15.349,0,0,1,848.34,434.347Z" fill="#f2f2f2"/><path d="M665.212,375.245l11.107,5.336-6.731-9.291a13.34,13.34,0,0,1,6.705-1.811h.169a16,16,0,0,0,2.273-.133l3.75,1.816-1.626-2.232a13.621,13.621,0,0,0,6.567-3.786l6.721,3.237-4.171-5.828a22.512,22.512,0,0,1,31.791,1.7l.017.019c.174.185.339.38.513.575,2.416,2.991,6.752,4.771,11.364,4.669h.38c7.7,0,13.965,6.639,13.965,14.837s-6.274,14.842-13.99,14.842a13.291,13.291,0,0,1-4.871-.924,26.068,26.068,0,0,0-16.9-.256,22.732,22.732,0,0,1-14.4.031,26.012,26.012,0,0,0-16.761.246,13.155,13.155,0,0,1-4.807.9c-7.7,0-13.975-6.669-13.975-14.837A15.352,15.352,0,0,1,665.212,375.245Z" fill="#f2f2f2"/><path d="M282.476,332.838l11.107,5.336-6.726-9.291a13.342,13.342,0,0,1,6.705-1.816h.2a15.992,15.992,0,0,0,2.273-.133l3.75,1.816-1.626-2.232a13.621,13.621,0,0,0,6.567-3.786l6.721,3.237-4.195-5.823a22.517,22.517,0,0,1,31.8,1.713l.01.011c.169.185.333.38.513.575,2.416,2.991,6.752,4.771,11.364,4.669h.38c7.7,0,13.965,6.639,13.965,14.837s-6.274,14.842-13.99,14.842a13.291,13.291,0,0,1-4.871-.924,26.073,26.073,0,0,0-16.928-.256,22.739,22.739,0,0,1-14.4.031,26.012,26.012,0,0,0-16.761.246,13.177,13.177,0,0,1-4.807.9c-7.7,0-13.975-6.669-13.975-14.837A15.352,15.352,0,0,1,282.476,332.838Z" fill="#f2f2f2"/><path d="M985.758,316.554l11.107,5.336-6.731-9.291a13.34,13.34,0,0,1,6.705-1.811h.174a16,16,0,0,0,2.273-.133l3.75,1.816-1.626-2.232a13.621,13.621,0,0,0,6.567-3.786l6.721,3.237-4.171-5.828a22.512,22.512,0,0,1,31.791,1.7l.017.019c.174.185.339.38.513.575,2.416,2.991,6.751,4.771,11.364,4.669h.38c7.7,0,13.965,6.639,13.965,14.837s-6.274,14.842-13.99,14.842a13.286,13.286,0,0,1-4.871-.924,26.073,26.073,0,0,0-16.928-.256,22.732,22.732,0,0,1-14.4.031,26.012,26.012,0,0,0-16.761.246,13.155,13.155,0,0,1-4.807.9c-7.7,0-13.975-6.669-13.975-14.837a15.345,15.345,0,0,1,2.929-9.117Z" fill="#f2f2f2"/><path d="M1521.95,519.62c-33.62,0-60.993-9.866-62.062-22.186h-2.154c-1.751,12.085-28.84,21.686-62.007,21.686s-60.25-9.6-62.008-21.686H1331.6c-.365,12.552-28.023,22.686-62.089,22.686s-61.732-10.135-62.1-22.684H1203.9a9.219,9.219,0,0,1,.135,1.5c0,12.667-27.805,22.934-62.1,22.934s-62.1-10.274-62.1-22.941a9.219,9.219,0,0,1,.135-1.5h-2.224c0,.331.061.661.061,1,0,12.667-27.806,22.934-62.1,22.934s-62.1-10.267-62.1-22.934a5.492,5.492,0,0,1,.061-1h-2.346a8.735,8.735,0,0,1,.237,2c0,12.663-27.806,22.934-62.1,22.934s-62.1-10.271-62.1-22.934a8.372,8.372,0,0,1,.248-2h-2.4a8.6,8.6,0,0,1,.135,1.5c0,12.667-27.8,22.934-62.1,22.934s-62.061-10.267-62.061-22.934a8.592,8.592,0,0,1,.135-1.5h-2.839c0,12.667-27.8,22.934-62.1,22.934s-62.121-10.267-62.121-22.934h-2.028c-.717,12.436-28.238,22.434-62.081,22.434s-61.365-10-62.081-22.434H446v.5c0,12.663-27.8,22.934-62.1,22.934s-62.09-10.267-62.09-22.934v-.5h-2.027c0,12.667-27.8,22.934-62.1,22.934-.9,0-1.8,0-2.7-.025V646.25H1553V516.55A150.6,150.6,0,0,1,1521.95,519.62Z" opacity="0.42" fill="url(#a)" style="isolation:isolate"/><path d="M436.225,499.4l-10.33,2.4c-.33.051-5.243.739-8.8-1.873a5.961,5.961,0,0,1-2.63-5.52c3.169-11.933,2.474-14.3,2.474-14.3-1.379-4.663-6.263-8.963-12.329-11a30.587,30.587,0,0,0-21.629,1.267c-7.271,3.4-9.415,7.475-11.93,7.039-3.239-.554.278-7.921-5.927-15.35a27.042,27.042,0,0,0-7.88-6.156,29.31,29.31,0,0,0-12.579.226c-7.3,1.852-7.88,8.209-10.945,8.008-3.783-.236-3.4-9.153-9.85-17.5-4.821-6.22-11.895-10.132-17.81-12.6l-28.605-2.43c-1.58-.2-14.913-1.915-22.48-1.253V545.6c9.05,9.276,24.01,13.38,34.485,15.335l22.417-3.9a39.618,39.618,0,0,0,5.017-1.2l141.765-6.972c14.6-4.279,25.186-12.949,25.806-22.1C485.375,513.371,464.951,498.272,436.225,499.4Z" fill="#383135"/><path d="M281.45,437.868c2.565-.468,8.152,35.757,11.677,35.058,3.078-.608,1.344-28.889,3.114-29.053s3.9,30.512,7.906,30.64,7.536-29.43,9.2-29.138c1.58.274-2.565,26.64,2.124,28.664,5.895,2.553,22.676-35.083,23.651-34.42s-14.331,32.749-12.161,34.417c1.488,1.143,10.517-12.369,11.482-11.737.852.559-10.943,18-8.07,20.775s18.469-9.846,19.4-8.564c.739.991-8.439,8.661-7.449,10.15,1.154,1.738,14.986-6.613,15.986-5.075s-11.33,11.083-10.556,12.211,15.319-8.631,16.417-7.13c.713.973-5.228,5.33-11.487,14.271-6.772,9.676-5.777,13.092-9.778,16.18-9.594,7.4-28.217-2.352-31.772-4.322-.18-.1-.3-.17-.513-.28-6.156-3.2-11.615,1.823-14.421,1.69C285.749,511.756,277.818,438.528,281.45,437.868Z" fill="#5fad45"/><path d="M1244.744,341.42l11.2,8.147-6.784-14.175a10.2,10.2,0,0,1,6.758-2.752h.177a10.946,10.946,0,0,0,2.291-.2l3.781,2.752-1.642-3.376a13.9,13.9,0,0,0,6.621-5.78l6.776,4.913-4.235-8.909c3.965-5.454,9.3-8.789,15.176-8.789,7.049,0,13.317,4.817,17.374,12.3,2.431,4.587,6.8,7.285,11.454,7.124h.369c7.772,0,14.073,10.143,14.073,22.657s-6.3,22.662-14.073,22.662a9.552,9.552,0,0,1-4.914-1.413,17.928,17.928,0,0,0-17.035-.39,15.639,15.639,0,0,1-14.5.027,17.921,17.921,0,0,0-16.891.376,9.489,9.489,0,0,1-4.851,1.376c-7.783,0-14.084-10.152-14.084-22.662A32.35,32.35,0,0,1,1244.744,341.42Z" fill="#f2f2f2"/><path d="M1385.98,392.059l15.688,10.2-9.506-17.749a15.257,15.257,0,0,1,9.47-3.446h.248a17.185,17.185,0,0,0,3.21-.253l5.3,3.446-2.3-4.228a19,19,0,0,0,9.279-7.238l9.5,6.152-5.934-11.155c5.557-6.83,13.037-11.006,21.266-11.006,9.878,0,18.66,6.031,24.346,15.406a18.013,18.013,0,0,0,16.05,8.921h.517c10.891,0,19.72,12.7,19.72,28.37s-8.829,28.376-19.72,28.376a14.592,14.592,0,0,1-6.885-1.769,27.768,27.768,0,0,0-23.871-.488,24.244,24.244,0,0,1-20.32.034,27.765,27.765,0,0,0-23.669.471,14.5,14.5,0,0,1-6.8,1.723c-10.907,0-19.736-12.712-19.736-28.376A36.9,36.9,0,0,1,1385.98,392.059Z" fill="#f2f2f2"/></g></svg>